<!-- Uncomment following when using your own custom external stylesheet.-->
<!--
<?xml-stylesheet type="text/css" href="xppaut-stylesheet.css" ?>
-->
<svg  xmlns="http://www.w3.org/2000/svg"
      xmlns:xlink="http://www.w3.org/1999/xlink" font-size="12pt" width="640" height="400">


      <defs>
          <circle class="xpppointP" id = "xpppointP"  r = "1"  stroke-width = "1"/>
          <circle class="xppbead" id = "xppbead"  r = "1"  stroke-width = "1"/>
          <circle class="xpppointD" id = "xpppointD"  r = "1"  stroke-width = "1"/>
          <circle class="xpppointA" id = "xpppointA"  r = "1"  stroke-width = "1"/>
          <circle class="xpppointB" id = "xpppointB"  r = "1"  stroke-width = "1"/>
          <circle class="xpppointC" id = "xpppointC"  r = "1"  stroke-width = "1"/>
          <circle class="xpppointT" id = "xpppointT"  r = "1"  stroke-width = "1"/>
          <circle class="xpppointS" id = "xpppointS"  r = "1"  stroke-width = "1"/>
          <circle class="xpppointK" id = "xpppointK"  r = "3"  stroke-width = "0.75"/>
          <circle class="xpppointF" id = "xpppointF"  r = "2"  stroke-width = "0"/>
      </defs>



      <!-- Comment out the following style block when using your own custom external stylesheet.-->
      <!-- As a starting point for your custom external stylesheet, consider copying the style 
           information (between but not including CDATA tags) to a file named xppaut-stylesheet.css 
       -->
      <style type="text/css">
           <![CDATA[
      
                 circle.xpppointP {
                    stroke-width: 1.0;
                 }

                 circle.xpppointD {
                    stroke-width: 1.0;
                 }

                 circle.xpppointA {
                    stroke-width: 1.0;
                 }

                 circle.xpppointB {
                    stroke-width: 1.0;
                 }

                 circle.xpppointC {
                    stroke-width: 1.0;
                 }

                 circle.xpppointT {
                    stroke-width: 1.0;
                 }

                 circle.xpppointS {
                    stroke-width: 1.0;
                 }

                 circle.xpppointK {
                    stroke-width: 1.0;
                 }

                 circle.xpppointF {
                    stroke-width: 1.0;
                 }

                 line.xppaxes {
                    stroke: #000000;
                 }
                 line.xppboxaxes {
                    stroke: #000000;
                 }
                 line.xppdfield {
                    stroke: #000000;
                 }
                 line.xpplineb {
                    stroke: #000000;
                 }
                 line.xpplinea {
                    stroke-dasharray: 2,8;
                    stroke-width: 2;
                    stroke: #000000;
                 }
                 line.xppline0 {
                    stroke: #000000;
                 }
                 line.xppline1 {
                    stroke-width: 1;
                    stroke: #FF0000;
                 }
                 line.xppline2 {
                    stroke: #F06400;
                 }
                 line.xppline3 {
                    stroke: #FFA500;
                 }
                 line.xppline4 {
                    stroke: #FFCD00;
                 }
                 line.xppline5 {
                    stroke: #C8C800;
                 }
                 line.xppline6 {
                    stroke: #00FF00;
                 }
                 line.xppline7 {
                    stroke: #32CD32;
                 }
                 line.xppline8 {
                    stroke: #00C8C8;
                 }
                 line.xppline9 {
                    stroke: #0000FF;
                 }
                 line.xpplinec {
                    stroke: #000000;
                 }
                 
                 text.xpptext {
                    font-family: sans-serif;
                    font-size  : 1em;
                    stroke	: #000000;
                    fill	: #000000;
                    baseline-shift:-33%;
                    dominant-baseline: central;
                 }
                 text.xppyaxislabelh {
                    font-family: sans-serif;
                    font-size  : 1em;
                    stroke	: none;
                    fill	: none;
                    baseline-shift:-33%;
                    dominant-baseline: central;
                 }
                 text.xppyaxislabelv {
                    font-family: sans-serif;
                    font-size  : 1em;
                    stroke	: #000000;
                    fill	: #000000;
                    baseline-shift:-33%;
                    dominant-baseline: central;
                 }
                 text.xppaxestext {
                    font-family: sans-serif;
                    font-size  : 1em;
                    stroke	: #000000;
                    fill	: #000000;
                    baseline-shift:-33%;
                    dominant-baseline: central;
                 }
                 
                 text.xpptext0 {
                    font-family: sans-serif;
                    font-size  : 0.5em;
                    stroke	: #000000;
                    fill	: #000000;
                    baseline-shift:-33%;
                    dominant-baseline: central;
                 }
                 
                 text.xpptext1 {
                    font-family: sans-serif;
                    font-size  : 0.75em;
                    stroke	: #000000;
                    fill	: #000000;
                    baseline-shift:-33%;
                    dominant-baseline: central;
                 }
                 
                 text.xpptext2 {
                    font-family: sans-serif;
                    font-size  : 1em;
                    stroke	: #000000;
                    fill	: #000000;
                    baseline-shift:-33%;
                    dominant-baseline: central;
                 }
                 
                 text.xpptext3 {
                    font-family: sans-serif;
                    font-size  : 1.25em;
                    stroke	: #000000;
                    fill	: #000000;
                    baseline-shift:-33%;
                    dominant-baseline: central;
                 }
                 
                 text.xpptext4 {
                    font-family: sans-serif;
                    font-size  : 1.5em;
                    stroke	: #000000;
                    fill	: #000000;
                    baseline-shift:-33%;
                    dominant-baseline: central;
                 }
           ]]>
      </style>

<g>
      <line class="xppline2"  x1="155"  y1="191" x2="144"   y2="191" />
      <line class="xppline2"  x1="166"  y1="191" x2="155"   y2="191" />
      <line class="xppline2"  x1="177"  y1="191" x2="166"   y2="191" />
      <line class="xppline2"  x1="189"  y1="191" x2="177"   y2="191" />
      <line class="xppline2"  x1="200"  y1="191" x2="189"   y2="191" />
      <line class="xppline2"  x1="211"  y1="191" x2="200"   y2="191" />
      <line class="xppline2"  x1="222"  y1="191" x2="211"   y2="191" />
      <line class="xppline2"  x1="234"  y1="191" x2="222"   y2="191" />
      <line class="xppline2"  x1="245"  y1="191" x2="234"   y2="191" />
      <line class="xppline2"  x1="256"  y1="191" x2="245"   y2="191" />
      <line class="xppline2"  x1="268"  y1="191" x2="256"   y2="191" />
      <line class="xppline2"  x1="279"  y1="191" x2="268"   y2="191" />
      <line class="xppline2"  x1="290"  y1="191" x2="279"   y2="191" />
      <line class="xppline2"  x1="301"  y1="191" x2="290"   y2="191" />
      <line class="xppline2"  x1="313"  y1="191" x2="301"   y2="191" />
      <line class="xppline2"  x1="324"  y1="191" x2="313"   y2="191" />
      <line class="xppline2"  x1="335"  y1="191" x2="324"   y2="191" />
      <line class="xppline2"  x1="346"  y1="191" x2="335"   y2="191" />
      <line class="xppline2"  x1="358"  y1="191" x2="346"   y2="191" />
      <line class="xppline2"  x1="369"  y1="191" x2="358"   y2="191" />
      <line class="xppline2"  x1="380"  y1="191" x2="369"   y2="191" />
      <line class="xppline2"  x1="392"  y1="191" x2="380"   y2="191" />
      <line class="xppline2"  x1="403"  y1="191" x2="392"   y2="191" />
      <line class="xppline2"  x1="414"  y1="191" x2="403"   y2="191" />
      <line class="xppline2"  x1="425"  y1="191" x2="414"   y2="191" />
      <line class="xppline2"  x1="437"  y1="191" x2="425"   y2="191" />
      <line class="xppline2"  x1="448"  y1="191" x2="437"   y2="191" />
      <line class="xppline2"  x1="459"  y1="191" x2="448"   y2="191" />
      <line class="xppline2"  x1="470"  y1="191" x2="459"   y2="191" />
      <line class="xppline2"  x1="482"  y1="191" x2="470"   y2="191" />
      <line class="xppline2"  x1="493"  y1="191" x2="482"   y2="191" />
      <line class="xppline2"  x1="504"  y1="191" x2="493"   y2="191" />
      <line class="xppline2"  x1="516"  y1="191" x2="504"   y2="191" />
      <line class="xppline2"  x1="527"  y1="191" x2="516"   y2="191" />
      <line class="xppline2"  x1="538"  y1="191" x2="527"   y2="191" />
      <line class="xppline2"  x1="549"  y1="191" x2="538"   y2="191" />
      <line class="xppline2"  x1="561"  y1="191" x2="549"   y2="191" />
      <line class="xppline2"  x1="572"  y1="191" x2="561"   y2="191" />
      <line class="xppline2"  x1="583"  y1="191" x2="572"   y2="191" />
      <line class="xppline2"  x1="594"  y1="191" x2="583"   y2="191" />
</g>
<g>
      <line class="xppline7"  x1="369"  y1="52" x2="369"   y2="58" />
      <line class="xppline7"  x1="369"  y1="58" x2="369"   y2="65" />
      <line class="xppline7"  x1="369"  y1="65" x2="369"   y2="72" />
      <line class="xppline7"  x1="369"  y1="72" x2="369"   y2="79" />
      <line class="xppline7"  x1="369"  y1="79" x2="369"   y2="86" />
      <line class="xppline7"  x1="369"  y1="86" x2="369"   y2="93" />
      <line class="xppline7"  x1="369"  y1="93" x2="369"   y2="100" />
      <line class="xppline7"  x1="369"  y1="100" x2="369"   y2="107" />
      <line class="xppline7"  x1="369"  y1="107" x2="369"   y2="114" />
      <line class="xppline7"  x1="369"  y1="114" x2="369"   y2="121" />
      <line class="xppline7"  x1="369"  y1="121" x2="369"   y2="128" />
      <line class="xppline7"  x1="369"  y1="128" x2="369"   y2="135" />
      <line class="xppline7"  x1="369"  y1="135" x2="369"   y2="142" />
      <line class="xppline7"  x1="369"  y1="142" x2="369"   y2="149" />
      <line class="xppline7"  x1="369"  y1="149" x2="369"   y2="156" />
      <line class="xppline7"  x1="369"  y1="156" x2="369"   y2="163" />
      <line class="xppline7"  x1="369"  y1="163" x2="369"   y2="170" />
      <line class="xppline7"  x1="369"  y1="170" x2="369"   y2="177" />
      <line class="xppline7"  x1="369"  y1="177" x2="369"   y2="184" />
      <line class="xppline7"  x1="369"  y1="184" x2="369"   y2="190" />
      <line class="xppline7"  x1="369"  y1="191" x2="369"   y2="197" />
      <line class="xppline7"  x1="369"  y1="197" x2="369"   y2="204" />
      <line class="xppline7"  x1="369"  y1="204" x2="369"   y2="211" />
      <line class="xppline7"  x1="369"  y1="211" x2="369"   y2="218" />
      <line class="xppline7"  x1="369"  y1="218" x2="369"   y2="225" />
      <line class="xppline7"  x1="369"  y1="225" x2="369"   y2="232" />
      <line class="xppline7"  x1="369"  y1="232" x2="369"   y2="239" />
      <line class="xppline7"  x1="369"  y1="239" x2="369"   y2="246" />
      <line class="xppline7"  x1="369"  y1="246" x2="369"   y2="253" />
      <line class="xppline7"  x1="369"  y1="253" x2="369"   y2="260" />
      <line class="xppline7"  x1="369"  y1="260" x2="369"   y2="267" />
      <line class="xppline7"  x1="369"  y1="267" x2="369"   y2="274" />
      <line class="xppline7"  x1="369"  y1="274" x2="369"   y2="281" />
      <line class="xppline7"  x1="369"  y1="281" x2="369"   y2="288" />
      <line class="xppline7"  x1="369"  y1="288" x2="369"   y2="295" />
      <line class="xppline7"  x1="369"  y1="295" x2="369"   y2="302" />
      <line class="xppline7"  x1="369"  y1="302" x2="369"   y2="309" />
      <line class="xppline7"  x1="369"  y1="309" x2="369"   y2="316" />
      <line class="xppline7"  x1="369"  y1="316" x2="369"   y2="323" />
      <line class="xppline7"  x1="369"  y1="323" x2="369"   y2="329" />
</g>
<g>
      <line class="xppline0"  x1="252"  y1="98" x2="252"   y2="98" />
      <line class="xppline0"  x1="252"  y1="98" x2="260"   y2="95" />
      <line class="xppline0"  x1="260"  y1="95" x2="268"   y2="92" />
      <line class="xppline0"  x1="268"  y1="92" x2="276"   y2="89" />
      <line class="xppline0"  x1="276"  y1="89" x2="284"   y2="86" />
      <line class="xppline0"  x1="284"  y1="86" x2="293"   y2="83" />
      <line class="xppline0"  x1="293"  y1="83" x2="302"   y2="81" />
      <line class="xppline0"  x1="302"  y1="81" x2="311"   y2="79" />
      <line class="xppline0"  x1="311"  y1="79" x2="320"   y2="78" />
      <line class="xppline0"  x1="320"  y1="78" x2="329"   y2="76" />
      <line class="xppline0"  x1="329"  y1="76" x2="338"   y2="75" />
      <line class="xppline0"  x1="338"  y1="75" x2="348"   y2="74" />
      <line class="xppline0"  x1="348"  y1="74" x2="357"   y2="74" />
      <line class="xppline0"  x1="357"  y1="74" x2="367"   y2="74" />
      <line class="xppline0"  x1="367"  y1="74" x2="376"   y2="74" />
      <line class="xppline0"  x1="376"  y1="74" x2="386"   y2="74" />
      <line class="xppline0"  x1="386"  y1="74" x2="395"   y2="75" />
      <line class="xppline0"  x1="395"  y1="75" x2="404"   y2="76" />
      <line class="xppline0"  x1="404"  y1="76" x2="414"   y2="77" />
      <line class="xppline0"  x1="414"  y1="77" x2="423"   y2="78" />
      <line class="xppline0"  x1="423"  y1="78" x2="432"   y2="80" />
      <line class="xppline0"  x1="432"  y1="80" x2="441"   y2="82" />
      <line class="xppline0"  x1="441"  y1="82" x2="449"   y2="85" />
      <line class="xppline0"  x1="449"  y1="85" x2="458"   y2="87" />
      <line class="xppline0"  x1="458"  y1="87" x2="466"   y2="90" />
      <line class="xppline0"  x1="466"  y1="90" x2="474"   y2="93" />
      <line class="xppline0"  x1="474"  y1="93" x2="482"   y2="97" />
      <line class="xppline0"  x1="482"  y1="97" x2="489"   y2="100" />
      <line class="xppline0"  x1="489"  y1="100" x2="497"   y2="104" />
      <line class="xppline0"  x1="497"  y1="104" x2="503"   y2="108" />
      <line class="xppline0"  x1="503"  y1="108" x2="510"   y2="112" />
      <line class="xppline0"  x1="510"  y1="112" x2="516"   y2="117" />
      <line class="xppline0"  x1="516"  y1="117" x2="522"   y2="121" />
      <line class="xppline0"  x1="522"  y1="121" x2="527"   y2="126" />
      <line class="xppline0"  x1="527"  y1="126" x2="532"   y2="131" />
      <line class="xppline0"  x1="532"  y1="131" x2="537"   y2="136" />
      <line class="xppline0"  x1="537"  y1="136" x2="541"   y2="141" />
      <line class="xppline0"  x1="541"  y1="141" x2="545"   y2="147" />
      <line class="xppline0"  x1="545"  y1="147" x2="548"   y2="152" />
      <line class="xppline0"  x1="548"  y1="152" x2="551"   y2="158" />
      <line class="xppline0"  x1="551"  y1="158" x2="554"   y2="164" />
      <line class="xppline0"  x1="554"  y1="164" x2="555"   y2="169" />
      <line class="xppline0"  x1="555"  y1="169" x2="557"   y2="175" />
      <line class="xppline0"  x1="557"  y1="175" x2="558"   y2="181" />
      <line class="xppline0"  x1="558"  y1="181" x2="559"   y2="187" />
      <line class="xppline0"  x1="559"  y1="187" x2="559"   y2="192" />
      <line class="xppline0"  x1="559"  y1="192" x2="558"   y2="198" />
      <line class="xppline0"  x1="558"  y1="198" x2="557"   y2="204" />
      <line class="xppline0"  x1="557"  y1="204" x2="556"   y2="210" />
      <line class="xppline0"  x1="556"  y1="210" x2="554"   y2="216" />
      <line class="xppline0"  x1="554"  y1="216" x2="552"   y2="221" />
      <line class="xppline0"  x1="552"  y1="221" x2="549"   y2="227" />
      <line class="xppline0"  x1="549"  y1="227" x2="546"   y2="232" />
      <line class="xppline0"  x1="546"  y1="232" x2="542"   y2="238" />
      <line class="xppline0"  x1="542"  y1="238" x2="538"   y2="243" />
      <line class="xppline0"  x1="538"  y1="243" x2="534"   y2="248" />
      <line class="xppline0"  x1="534"  y1="248" x2="529"   y2="253" />
      <line class="xppline0"  x1="529"  y1="253" x2="524"   y2="258" />
      <line class="xppline0"  x1="524"  y1="258" x2="518"   y2="263" />
      <line class="xppline0"  x1="518"  y1="263" x2="512"   y2="267" />
      <line class="xppline0"  x1="512"  y1="267" x2="506"   y2="272" />
      <line class="xppline0"  x1="506"  y1="272" x2="499"   y2="276" />
      <line class="xppline0"  x1="499"  y1="276" x2="492"   y2="280" />
      <line class="xppline0"  x1="492"  y1="280" x2="484"   y2="283" />
      <line class="xppline0"  x1="484"  y1="283" x2="477"   y2="287" />
      <line class="xppline0"  x1="477"  y1="287" x2="469"   y2="290" />
      <line class="xppline0"  x1="469"  y1="290" x2="461"   y2="293" />
      <line class="xppline0"  x1="461"  y1="293" x2="452"   y2="296" />
      <line class="xppline0"  x1="452"  y1="296" x2="444"   y2="298" />
      <line class="xppline0"  x1="444"  y1="298" x2="435"   y2="300" />
      <line class="xppline0"  x1="435"  y1="300" x2="426"   y2="302" />
      <line class="xppline0"  x1="426"  y1="302" x2="417"   y2="304" />
      <line class="xppline0"  x1="417"  y1="304" x2="407"   y2="305" />
      <line class="xppline0"  x1="407"  y1="305" x2="398"   y2="306" />
      <line class="xppline0"  x1="398"  y1="306" x2="389"   y2="307" />
      <line class="xppline0"  x1="389"  y1="307" x2="379"   y2="307" />
      <line class="xppline0"  x1="379"  y1="307" x2="370"   y2="307" />
      <line class="xppline0"  x1="370"  y1="307" x2="360"   y2="307" />
      <line class="xppline0"  x1="360"  y1="307" x2="351"   y2="307" />
      <line class="xppline0"  x1="351"  y1="307" x2="341"   y2="306" />
      <line class="xppline0"  x1="341"  y1="306" x2="332"   y2="305" />
      <line class="xppline0"  x1="332"  y1="305" x2="323"   y2="304" />
      <line class="xppline0"  x1="323"  y1="304" x2="314"   y2="302" />
      <line class="xppline0"  x1="314"  y1="302" x2="305"   y2="300" />
      <line class="xppline0"  x1="305"  y1="300" x2="296"   y2="298" />
      <line class="xppline0"  x1="296"  y1="298" x2="287"   y2="296" />
      <line class="xppline0"  x1="287"  y1="296" x2="279"   y2="293" />
      <line class="xppline0"  x1="279"  y1="293" x2="271"   y2="290" />
      <line class="xppline0"  x1="271"  y1="290" x2="263"   y2="287" />
      <line class="xppline0"  x1="263"  y1="287" x2="255"   y2="284" />
      <line class="xppline0"  x1="255"  y1="284" x2="247"   y2="280" />
      <line class="xppline0"  x1="247"  y1="280" x2="240"   y2="276" />
      <line class="xppline0"  x1="240"  y1="276" x2="233"   y2="272" />
      <line class="xppline0"  x1="233"  y1="272" x2="227"   y2="268" />
      <line class="xppline0"  x1="227"  y1="268" x2="221"   y2="264" />
      <line class="xppline0"  x1="221"  y1="264" x2="215"   y2="259" />
      <line class="xppline0"  x1="215"  y1="259" x2="210"   y2="254" />
      <line class="xppline0"  x1="210"  y1="254" x2="205"   y2="249" />
      <line class="xppline0"  x1="205"  y1="249" x2="200"   y2="244" />
      <line class="xppline0"  x1="200"  y1="244" x2="196"   y2="239" />
      <line class="xppline0"  x1="196"  y1="239" x2="193"   y2="233" />
      <line class="xppline0"  x1="193"  y1="233" x2="189"   y2="228" />
      <line class="xppline0"  x1="189"  y1="228" x2="186"   y2="222" />
      <line class="xppline0"  x1="186"  y1="222" x2="184"   y2="217" />
      <line class="xppline0"  x1="184"  y1="217" x2="182"   y2="211" />
      <line class="xppline0"  x1="182"  y1="211" x2="181"   y2="205" />
      <line class="xppline0"  x1="181"  y1="205" x2="180"   y2="199" />
      <line class="xppline0"  x1="180"  y1="199" x2="179"   y2="193" />
      <line class="xppline0"  x1="179"  y1="193" x2="179"   y2="188" />
      <line class="xppline0"  x1="179"  y1="188" x2="180"   y2="182" />
      <line class="xppline0"  x1="180"  y1="182" x2="181"   y2="176" />
      <line class="xppline0"  x1="181"  y1="176" x2="182"   y2="170" />
      <line class="xppline0"  x1="182"  y1="170" x2="184"   y2="164" />
      <line class="xppline0"  x1="184"  y1="164" x2="187"   y2="159" />
      <line class="xppline0"  x1="187"  y1="159" x2="189"   y2="153" />
      <line class="xppline0"  x1="189"  y1="153" x2="193"   y2="148" />
      <line class="xppline0"  x1="193"  y1="148" x2="196"   y2="142" />
      <line class="xppline0"  x1="196"  y1="142" x2="200"   y2="137" />
      <line class="xppline0"  x1="200"  y1="137" x2="205"   y2="132" />
      <line class="xppline0"  x1="205"  y1="132" x2="210"   y2="127" />
      <line class="xppline0"  x1="210"  y1="127" x2="215"   y2="122" />
      <line class="xppline0"  x1="215"  y1="122" x2="221"   y2="117" />
      <line class="xppline0"  x1="221"  y1="117" x2="227"   y2="113" />
      <line class="xppline0"  x1="227"  y1="113" x2="234"   y2="109" />
      <line class="xppline0"  x1="234"  y1="109" x2="240"   y2="105" />
      <line class="xppline0"  x1="240"  y1="105" x2="247"   y2="101" />
      <line class="xppline0"  x1="247"  y1="101" x2="255"   y2="97" />
      <line class="xppline0"  x1="255"  y1="97" x2="263"   y2="94" />
      <line class="xppline0"  x1="263"  y1="94" x2="271"   y2="91" />
      <line class="xppline0"  x1="271"  y1="91" x2="279"   y2="88" />
      <line class="xppline0"  x1="279"  y1="88" x2="287"   y2="85" />
      <line class="xppline0"  x1="287"  y1="85" x2="296"   y2="83" />
      <line class="xppline0"  x1="296"  y1="83" x2="305"   y2="81" />
      <line class="xppline0"  x1="305"  y1="81" x2="314"   y2="79" />
      <line class="xppline0"  x1="314"  y1="79" x2="323"   y2="77" />
      <line class="xppline0"  x1="323"  y1="77" x2="332"   y2="76" />
      <line class="xppline0"  x1="332"  y1="76" x2="342"   y2="75" />
      <line class="xppline0"  x1="342"  y1="75" x2="351"   y2="74" />
      <line class="xppline0"  x1="351"  y1="74" x2="360"   y2="74" />
      <line class="xppline0"  x1="360"  y1="74" x2="370"   y2="74" />
      <line class="xppline0"  x1="370"  y1="74" x2="379"   y2="74" />
      <line class="xppline0"  x1="379"  y1="74" x2="389"   y2="74" />
      <line class="xppline0"  x1="389"  y1="74" x2="398"   y2="75" />
      <line class="xppline0"  x1="398"  y1="75" x2="408"   y2="76" />
      <line class="xppline0"  x1="408"  y1="76" x2="417"   y2="77" />
      <line class="xppline0"  x1="417"  y1="77" x2="426"   y2="79" />
      <line class="xppline0"  x1="426"  y1="79" x2="435"   y2="81" />
      <line class="xppline0"  x1="435"  y1="81" x2="444"   y2="83" />
      <line class="xppline0"  x1="444"  y1="83" x2="452"   y2="85" />
      <line class="xppline0"  x1="452"  y1="85" x2="461"   y2="88" />
      <line class="xppline0"  x1="461"  y1="88" x2="469"   y2="91" />
      <line class="xppline0"  x1="469"  y1="91" x2="477"   y2="94" />
      <line class="xppline0"  x1="477"  y1="94" x2="484"   y2="98" />
      <line class="xppline0"  x1="484"  y1="98" x2="492"   y2="101" />
      <line class="xppline0"  x1="492"  y1="101" x2="499"   y2="105" />
      <line class="xppline0"  x1="499"  y1="105" x2="506"   y2="109" />
      <line class="xppline0"  x1="506"  y1="109" x2="512"   y2="114" />
      <line class="xppline0"  x1="512"  y1="114" x2="518"   y2="118" />
      <line class="xppline0"  x1="518"  y1="118" x2="524"   y2="123" />
      <line class="xppline0"  x1="524"  y1="123" x2="529"   y2="128" />
      <line class="xppline0"  x1="529"  y1="128" x2="534"   y2="133" />
      <line class="xppline0"  x1="534"  y1="133" x2="538"   y2="138" />
      <line class="xppline0"  x1="538"  y1="138" x2="542"   y2="143" />
      <line class="xppline0"  x1="542"  y1="143" x2="546"   y2="149" />
      <line class="xppline0"  x1="546"  y1="149" x2="549"   y2="154" />
      <line class="xppline0"  x1="549"  y1="154" x2="552"   y2="160" />
      <line class="xppline0"  x1="552"  y1="160" x2="554"   y2="165" />
      <line class="xppline0"  x1="554"  y1="165" x2="556"   y2="171" />
      <line class="xppline0"  x1="556"  y1="171" x2="557"   y2="177" />
      <line class="xppline0"  x1="557"  y1="177" x2="558"   y2="183" />
      <line class="xppline0"  x1="558"  y1="183" x2="559"   y2="189" />
      <line class="xppline0"  x1="559"  y1="189" x2="559"   y2="194" />
      <line class="xppline0"  x1="559"  y1="194" x2="558"   y2="200" />
      <line class="xppline0"  x1="558"  y1="200" x2="557"   y2="206" />
      <line class="xppline0"  x1="557"  y1="206" x2="555"   y2="212" />
      <line class="xppline0"  x1="555"  y1="212" x2="553"   y2="218" />
      <line class="xppline0"  x1="553"  y1="218" x2="551"   y2="223" />
      <line class="xppline0"  x1="551"  y1="223" x2="548"   y2="229" />
      <line class="xppline0"  x1="548"  y1="229" x2="545"   y2="234" />
      <line class="xppline0"  x1="545"  y1="234" x2="541"   y2="240" />
      <line class="xppline0"  x1="541"  y1="240" x2="537"   y2="245" />
      <line class="xppline0"  x1="537"  y1="245" x2="532"   y2="250" />
      <line class="xppline0"  x1="532"  y1="250" x2="527"   y2="255" />
      <line class="xppline0"  x1="527"  y1="255" x2="522"   y2="260" />
      <line class="xppline0"  x1="522"  y1="260" x2="516"   y2="264" />
      <line class="xppline0"  x1="516"  y1="264" x2="510"   y2="269" />
      <line class="xppline0"  x1="510"  y1="269" x2="503"   y2="273" />
      <line class="xppline0"  x1="503"  y1="273" x2="496"   y2="277" />
      <line class="xppline0"  x1="496"  y1="277" x2="489"   y2="281" />
      <line class="xppline0"  x1="489"  y1="281" x2="482"   y2="284" />
      <line class="xppline0"  x1="482"  y1="284" x2="474"   y2="288" />
      <line class="xppline0"  x1="474"  y1="288" x2="466"   y2="291" />
      <line class="xppline0"  x1="466"  y1="291" x2="458"   y2="294" />
      <line class="xppline0"  x1="458"  y1="294" x2="449"   y2="296" />
      <line class="xppline0"  x1="449"  y1="296" x2="441"   y2="299" />
      <line class="xppline0"  x1="441"  y1="299" x2="432"   y2="301" />
      <line class="xppline0"  x1="432"  y1="301" x2="423"   y2="303" />
      <line class="xppline0"  x1="423"  y1="303" x2="414"   y2="304" />
      <line class="xppline0"  x1="414"  y1="304" x2="404"   y2="305" />
      <line class="xppline0"  x1="404"  y1="305" x2="395"   y2="306" />
      <line class="xppline0"  x1="395"  y1="306" x2="385"   y2="307" />
      <line class="xppline0"  x1="385"  y1="307" x2="376"   y2="307" />
      <line class="xppline0"  x1="376"  y1="307" x2="367"   y2="307" />
      <line class="xppline0"  x1="367"  y1="307" x2="357"   y2="307" />
      <line class="xppline0"  x1="357"  y1="307" x2="348"   y2="307" />
      <line class="xppline0"  x1="348"  y1="307" x2="338"   y2="306" />
      <line class="xppline0"  x1="338"  y1="306" x2="329"   y2="305" />
      <line class="xppline0"  x1="329"  y1="305" x2="320"   y2="303" />
      <line class="xppline0"  x1="320"  y1="303" x2="311"   y2="302" />
      <line class="xppline0"  x1="311"  y1="302" x2="302"   y2="300" />
      <line class="xppline0"  x1="302"  y1="300" x2="293"   y2="298" />
      <line class="xppline0"  x1="293"  y1="298" x2="284"   y2="295" />
      <line class="xppline0"  x1="284"  y1="295" x2="276"   y2="292" />
      <line class="xppline0"  x1="276"  y1="292" x2="268"   y2="289" />
      <line class="xppline0"  x1="268"  y1="289" x2="260"   y2="286" />
      <line class="xppline0"  x1="260"  y1="286" x2="252"   y2="283" />
      <line class="xppline0"  x1="252"  y1="283" x2="245"   y2="279" />
      <line class="xppline0"  x1="245"  y1="279" x2="238"   y2="275" />
      <line class="xppline0"  x1="238"  y1="275" x2="231"   y2="271" />
      <line class="xppline0"  x1="231"  y1="271" x2="225"   y2="267" />
      <line class="xppline0"  x1="225"  y1="267" x2="219"   y2="262" />
      <line class="xppline0"  x1="219"  y1="262" x2="213"   y2="257" />
      <line class="xppline0"  x1="213"  y1="257" x2="208"   y2="252" />
      <line class="xppline0"  x1="208"  y1="252" x2="203"   y2="247" />
      <line class="xppline0"  x1="203"  y1="247" x2="199"   y2="242" />
      <line class="xppline0"  x1="199"  y1="242" x2="195"   y2="237" />
      <line class="xppline0"  x1="195"  y1="237" x2="191"   y2="231" />
      <line class="xppline0"  x1="191"  y1="231" x2="188"   y2="226" />
      <line class="xppline0"  x1="188"  y1="226" x2="186"   y2="220" />
      <line class="xppline0"  x1="186"  y1="220" x2="183"   y2="215" />
      <line class="xppline0"  x1="183"  y1="215" x2="182"   y2="209" />
      <line class="xppline0"  x1="182"  y1="209" x2="180"   y2="203" />
      <line class="xppline0"  x1="180"  y1="203" x2="180"   y2="197" />
      <line class="xppline0"  x1="180"  y1="197" x2="179"   y2="191" />
      <line class="xppline0"  x1="179"  y1="191" x2="180"   y2="186" />
      <line class="xppline0"  x1="180"  y1="186" x2="180"   y2="180" />
      <line class="xppline0"  x1="180"  y1="180" x2="181"   y2="174" />
      <line class="xppline0"  x1="181"  y1="174" x2="183"   y2="168" />
      <line class="xppline0"  x1="183"  y1="168" x2="185"   y2="162" />
      <line class="xppline0"  x1="185"  y1="162" x2="187"   y2="157" />
      <line class="xppline0"  x1="187"  y1="157" x2="190"   y2="151" />
      <line class="xppline0"  x1="190"  y1="151" x2="194"   y2="146" />
      <line class="xppline0"  x1="194"  y1="146" x2="198"   y2="140" />
      <line class="xppline0"  x1="198"  y1="140" x2="202"   y2="135" />
      <line class="xppline0"  x1="202"  y1="135" x2="207"   y2="130" />
      <line class="xppline0"  x1="207"  y1="130" x2="212"   y2="125" />
      <line class="xppline0"  x1="212"  y1="125" x2="217"   y2="120" />
      <line class="xppline0"  x1="217"  y1="120" x2="223"   y2="116" />
      <line class="xppline0"  x1="223"  y1="116" x2="229"   y2="111" />
      <line class="xppline0"  x1="229"  y1="111" x2="236"   y2="107" />
      <line class="xppline0"  x1="236"  y1="107" x2="243"   y2="103" />
      <line class="xppline0"  x1="243"  y1="103" x2="250"   y2="100" />
      <line class="xppline0"  x1="250"  y1="100" x2="257"   y2="96" />
      <line class="xppline0"  x1="257"  y1="96" x2="265"   y2="93" />
      <line class="xppline0"  x1="265"  y1="93" x2="273"   y2="90" />
      <line class="xppline0"  x1="273"  y1="90" x2="282"   y2="87" />
      <line class="xppline0"  x1="282"  y1="87" x2="290"   y2="84" />
      <line class="xppline0"  x1="290"  y1="84" x2="299"   y2="82" />
      <line class="xppline0"  x1="299"  y1="82" x2="308"   y2="80" />
      <line class="xppline0"  x1="308"  y1="80" x2="317"   y2="78" />
      <line class="xppline0"  x1="317"  y1="78" x2="326"   y2="77" />
      <line class="xppline0"  x1="326"  y1="77" x2="335"   y2="75" />
      <line class="xppline0"  x1="335"  y1="75" x2="345"   y2="75" />
      <line class="xppline0"  x1="345"  y1="75" x2="354"   y2="74" />
      <line class="xppline0"  x1="354"  y1="74" x2="364"   y2="74" />
      <line class="xppline0"  x1="364"  y1="74" x2="373"   y2="74" />
      <line class="xppline0"  x1="373"  y1="74" x2="383"   y2="74" />
      <line class="xppline0"  x1="383"  y1="74" x2="392"   y2="74" />
      <line class="xppline0"  x1="392"  y1="74" x2="401"   y2="75" />
      <line class="xppline0"  x1="401"  y1="75" x2="411"   y2="76" />
      <line class="xppline0"  x1="411"  y1="76" x2="420"   y2="78" />
      <line class="xppline0"  x1="420"  y1="78" x2="429"   y2="80" />
      <line class="xppline0"  x1="429"  y1="80" x2="438"   y2="82" />
      <line class="xppline0"  x1="438"  y1="82" x2="447"   y2="84" />
      <line class="xppline0"  x1="447"  y1="84" x2="455"   y2="86" />
      <line class="xppline0"  x1="455"  y1="86" x2="463"   y2="89" />
      <line class="xppline0"  x1="463"  y1="89" x2="472"   y2="92" />
      <line class="xppline0"  x1="472"  y1="92" x2="479"   y2="95" />
      <line class="xppline0"  x1="479"  y1="95" x2="487"   y2="99" />
      <line class="xppline0"  x1="487"  y1="99" x2="494"   y2="103" />
      <line class="xppline0"  x1="494"  y1="103" x2="501"   y2="107" />
      <line class="xppline0"  x1="501"  y1="107" x2="508"   y2="111" />
      <line class="xppline0"  x1="508"  y1="111" x2="514"   y2="115" />
      <line class="xppline0"  x1="514"  y1="115" x2="520"   y2="120" />
      <line class="xppline0"  x1="520"  y1="120" x2="526"   y2="125" />
      <line class="xppline0"  x1="526"  y1="125" x2="531"   y2="129" />
      <line class="xppline0"  x1="531"  y1="129" x2="535"   y2="135" />
      <line class="xppline0"  x1="535"  y1="135" x2="540"   y2="140" />
      <line class="xppline0"  x1="540"  y1="140" x2="544"   y2="145" />
      <line class="xppline0"  x1="544"  y1="145" x2="547"   y2="150" />
      <line class="xppline0"  x1="547"  y1="150" x2="550"   y2="156" />
      <line class="xppline0"  x1="550"  y1="156" x2="553"   y2="162" />
      <line class="xppline0"  x1="553"  y1="162" x2="555"   y2="167" />
      <line class="xppline0"  x1="555"  y1="167" x2="557"   y2="173" />
      <line class="xppline0"  x1="557"  y1="173" x2="558"   y2="179" />
      <line class="xppline0"  x1="558"  y1="179" x2="558"   y2="185" />
      <line class="xppline0"  x1="558"  y1="185" x2="559"   y2="191" />
      <line class="xppline0"  x1="559"  y1="191" x2="558"   y2="196" />
      <line class="xppline0"  x1="558"  y1="196" x2="558"   y2="202" />
      <line class="xppline0"  x1="558"  y1="202" x2="556"   y2="208" />
      <line class="xppline0"  x1="556"  y1="208" x2="555"   y2="214" />
      <line class="xppline0"  x1="555"  y1="214" x2="553"   y2="219" />
      <line class="xppline0"  x1="553"  y1="219" x2="550"   y2="225" />
      <line class="xppline0"  x1="550"  y1="225" x2="547"   y2="231" />
      <line class="xppline0"  x1="547"  y1="231" x2="544"   y2="236" />
      <line class="xppline0"  x1="544"  y1="236" x2="540"   y2="241" />
      <line class="xppline0"  x1="540"  y1="241" x2="535"   y2="247" />
      <line class="xppline0"  x1="535"  y1="247" x2="531"   y2="252" />
      <line class="xppline0"  x1="531"  y1="252" x2="525"   y2="257" />
      <line class="xppline0"  x1="525"  y1="257" x2="520"   y2="261" />
      <line class="xppline0"  x1="520"  y1="261" x2="514"   y2="266" />
      <line class="xppline0"  x1="514"  y1="266" x2="508"   y2="270" />
      <line class="xppline0"  x1="508"  y1="270" x2="501"   y2="274" />
      <line class="xppline0"  x1="501"  y1="274" x2="494"   y2="278" />
      <line class="xppline0"  x1="494"  y1="278" x2="487"   y2="282" />
      <line class="xppline0"  x1="487"  y1="282" x2="479"   y2="286" />
      <line class="xppline0"  x1="479"  y1="286" x2="471"   y2="289" />
      <line class="xppline0"  x1="471"  y1="289" x2="463"   y2="292" />
      <line class="xppline0"  x1="463"  y1="292" x2="455"   y2="295" />
      <line class="xppline0"  x1="455"  y1="295" x2="446"   y2="297" />
      <line class="xppline0"  x1="446"  y1="297" x2="438"   y2="299" />
      <line class="xppline0"  x1="438"  y1="299" x2="429"   y2="301" />
      <line class="xppline0"  x1="429"  y1="301" x2="420"   y2="303" />
      <line class="xppline0"  x1="420"  y1="303" x2="410"   y2="305" />
      <line class="xppline0"  x1="410"  y1="305" x2="401"   y2="306" />
      <line class="xppline0"  x1="401"  y1="306" x2="392"   y2="307" />
      <line class="xppline0"  x1="392"  y1="307" x2="382"   y2="307" />
      <line class="xppline0"  x1="382"  y1="307" x2="373"   y2="307" />
      <line class="xppline0"  x1="373"  y1="307" x2="363"   y2="307" />
      <line class="xppline0"  x1="363"  y1="307" x2="354"   y2="307" />
      <line class="xppline0"  x1="354"  y1="307" x2="344"   y2="306" />
      <line class="xppline0"  x1="344"  y1="306" x2="335"   y2="306" />
      <line class="xppline0"  x1="335"  y1="306" x2="326"   y2="304" />
      <line class="xppline0"  x1="326"  y1="304" x2="317"   y2="303" />
      <line class="xppline0"  x1="317"  y1="303" x2="308"   y2="301" />
      <line class="xppline0"  x1="308"  y1="301" x2="299"   y2="299" />
      <line class="xppline0"  x1="299"  y1="299" x2="290"   y2="297" />
      <line class="xppline0"  x1="290"  y1="297" x2="281"   y2="294" />
      <line class="xppline0"  x1="281"  y1="294" x2="273"   y2="291" />
      <line class="xppline0"  x1="273"  y1="291" x2="265"   y2="288" />
      <line class="xppline0"  x1="265"  y1="288" x2="257"   y2="285" />
      <line class="xppline0"  x1="257"  y1="285" x2="250"   y2="281" />
      <line class="xppline0"  x1="250"  y1="281" x2="243"   y2="278" />
      <line class="xppline0"  x1="243"  y1="278" x2="236"   y2="274" />
      <line class="xppline0"  x1="236"  y1="274" x2="229"   y2="269" />
      <line class="xppline0"  x1="229"  y1="269" x2="223"   y2="265" />
      <line class="xppline0"  x1="223"  y1="265" x2="217"   y2="260" />
      <line class="xppline0"  x1="217"  y1="260" x2="212"   y2="256" />
      <line class="xppline0"  x1="212"  y1="256" x2="206"   y2="251" />
      <line class="xppline0"  x1="206"  y1="251" x2="202"   y2="246" />
      <line class="xppline0"  x1="202"  y1="246" x2="198"   y2="240" />
      <line class="xppline0"  x1="198"  y1="240" x2="194"   y2="235" />
      <line class="xppline0"  x1="194"  y1="235" x2="190"   y2="230" />
      <line class="xppline0"  x1="190"  y1="230" x2="187"   y2="224" />
      <line class="xppline0"  x1="187"  y1="224" x2="185"   y2="218" />
      <line class="xppline0"  x1="185"  y1="218" x2="183"   y2="213" />
      <line class="xppline0"  x1="183"  y1="213" x2="181"   y2="207" />
      <line class="xppline0"  x1="181"  y1="207" x2="180"   y2="201" />
      <line class="xppline0"  x1="180"  y1="201" x2="180"   y2="195" />
      <line class="xppline0"  x1="180"  y1="195" x2="179"   y2="189" />
      <line class="xppline0"  x1="179"  y1="189" x2="180"   y2="184" />
      <line class="xppline0"  x1="180"  y1="184" x2="180"   y2="178" />
      <line class="xppline0"  x1="180"  y1="178" x2="182"   y2="172" />
      <line class="xppline0"  x1="182"  y1="172" x2="183"   y2="166" />
      <line class="xppline0"  x1="183"  y1="166" x2="186"   y2="161" />
      <line class="xppline0"  x1="186"  y1="161" x2="188"   y2="155" />
      <line class="xppline0"  x1="188"  y1="155" x2="191"   y2="149" />
      <line class="xppline0"  x1="191"  y1="149" x2="195"   y2="144" />
      <line class="xppline0"  x1="195"  y1="144" x2="199"   y2="139" />
      <line class="xppline0"  x1="199"  y1="139" x2="203"   y2="134" />
      <line class="xppline0"  x1="203"  y1="134" x2="208"   y2="129" />
      <line class="xppline0"  x1="208"  y1="129" x2="213"   y2="124" />
      <line class="xppline0"  x1="213"  y1="124" x2="219"   y2="119" />
      <line class="xppline0"  x1="219"  y1="119" x2="225"   y2="114" />
      <line class="xppline0"  x1="225"  y1="114" x2="231"   y2="110" />
      <line class="xppline0"  x1="231"  y1="110" x2="238"   y2="106" />
      <line class="xppline0"  x1="238"  y1="106" x2="245"   y2="102" />
      <line class="xppline0"  x1="245"  y1="102" x2="252"   y2="98" />
      <line class="xppline0"  x1="252"  y1="98" x2="260"   y2="95" />
      <line class="xppline0"  x1="260"  y1="95" x2="268"   y2="92" />
      <line class="xppline0"  x1="268"  y1="92" x2="276"   y2="89" />
      <line class="xppline0"  x1="276"  y1="89" x2="285"   y2="86" />
      <line class="xppline0"  x1="285"  y1="86" x2="293"   y2="83" />
      <line class="xppline0"  x1="293"  y1="83" x2="302"   y2="81" />
      <line class="xppline0"  x1="302"  y1="81" x2="311"   y2="79" />
      <line class="xppline0"  x1="311"  y1="79" x2="320"   y2="78" />
      <line class="xppline0"  x1="320"  y1="78" x2="329"   y2="76" />
      <line class="xppline0"  x1="329"  y1="76" x2="338"   y2="75" />
      <line class="xppline0"  x1="338"  y1="75" x2="348"   y2="74" />
      <line class="xppline0"  x1="348"  y1="74" x2="357"   y2="74" />
      <line class="xppline0"  x1="357"  y1="74" x2="367"   y2="74" />
      <line class="xppline0"  x1="367"  y1="74" x2="376"   y2="74" />
      <line class="xppline0"  x1="376"  y1="74" x2="386"   y2="74" />
      <line class="xppline0"  x1="386"  y1="74" x2="395"   y2="75" />
      <line class="xppline0"  x1="395"  y1="75" x2="404"   y2="76" />
      <line class="xppline0"  x1="404"  y1="76" x2="414"   y2="77" />
      <line class="xppline0"  x1="414"  y1="77" x2="423"   y2="78" />
      <line class="xppline0"  x1="423"  y1="78" x2="432"   y2="80" />
      <line class="xppline0"  x1="432"  y1="80" x2="441"   y2="82" />
      <line class="xppline0"  x1="441"  y1="82" x2="449"   y2="85" />
      <line class="xppline0"  x1="449"  y1="85" x2="458"   y2="87" />
</g>
      <line class="xppaxes"  x1="144"  y1="191" x2="595"   y2="191" />
      <line class="xppaxes"  x1="369"  y1="51" x2="369"   y2="329" />
      <line class="xppboxaxes"  x1="144"  y1="51" x2="595"   y2="51" />
      <line class="xppboxaxes"  x1="595"  y1="51" x2="595"   y2="329" />
      <line class="xppaxes"  x1="595"  y1="329" x2="144"   y2="329" />
      <line class="xppaxes"  x1="144"  y1="329" x2="144"   y2="51" />
      <line class="xppaxes"  x1="144"  y1="302" x2="153"   y2="302" />
      <line class="xppboxaxes"  x1="595"  y1="302" x2="586"   y2="302" />

      <text class="xppaxestext" text-anchor="end" x="129"  y="302"
      >-1.5</text>
      <line class="xppaxes"  x1="144"  y1="265" x2="153"   y2="265" />
      <line class="xppboxaxes"  x1="595"  y1="265" x2="586"   y2="265" />

      <text class="xppaxestext" text-anchor="end" x="129"  y="265"
      >-1</text>
      <line class="xppaxes"  x1="144"  y1="228" x2="153"   y2="228" />
      <line class="xppboxaxes"  x1="595"  y1="228" x2="586"   y2="228" />

      <text class="xppaxestext" text-anchor="end" x="129"  y="228"
      >-0.5</text>
      <line class="xppaxes"  x1="144"  y1="191" x2="153"   y2="191" />
      <line class="xppboxaxes"  x1="595"  y1="191" x2="586"   y2="191" />

      <text class="xppaxestext" text-anchor="end" x="129"  y="191"
      >0</text>
      <line class="xppaxes"  x1="144"  y1="153" x2="153"   y2="153" />
      <line class="xppboxaxes"  x1="595"  y1="153" x2="586"   y2="153" />

      <text class="xppaxestext" text-anchor="end" x="129"  y="153"
      >0.5</text>
      <line class="xppaxes"  x1="144"  y1="116" x2="153"   y2="116" />
      <line class="xppboxaxes"  x1="595"  y1="116" x2="586"   y2="116" />

      <text class="xppaxestext" text-anchor="end" x="129"  y="116"
      >1</text>
      <line class="xppaxes"  x1="144"  y1="79" x2="153"   y2="79" />
      <line class="xppboxaxes"  x1="595"  y1="79" x2="586"   y2="79" />

      <text class="xppaxestext" text-anchor="end" x="129"  y="79"
      >1.5</text>

      <text class="xppyaxislabelv" text-anchor="middle" x="0"  y="0"
      transform="rotate(-90,75,180) translate(75,180)"
      >Y</text>

      <text class="xppyaxislabelh" text-anchor="end" x="132"  y="12"
      >Y</text>
      <line class="xppaxes"  x1="188"  y1="329" x2="188"   y2="320" />
      <line class="xppboxaxes"  x1="188"  y1="51" x2="188"   y2="60" />

      <text class="xppaxestext" text-anchor="middle" x="188"  y="354"
      >-1.5</text>
      <line class="xppaxes"  x1="248"  y1="329" x2="248"   y2="320" />
      <line class="xppboxaxes"  x1="248"  y1="51" x2="248"   y2="60" />

      <text class="xppaxestext" text-anchor="middle" x="248"  y="354"
      >-1</text>
      <line class="xppaxes"  x1="309"  y1="329" x2="309"   y2="320" />
      <line class="xppboxaxes"  x1="309"  y1="51" x2="309"   y2="60" />

      <text class="xppaxestext" text-anchor="middle" x="309"  y="354"
      >-0.5</text>
      <line class="xppaxes"  x1="369"  y1="329" x2="369"   y2="320" />
      <line class="xppboxaxes"  x1="369"  y1="51" x2="369"   y2="60" />

      <text class="xppaxestext" text-anchor="middle" x="369"  y="354"
      >0</text>
      <line class="xppaxes"  x1="429"  y1="329" x2="429"   y2="320" />
      <line class="xppboxaxes"  x1="429"  y1="51" x2="429"   y2="60" />

      <text class="xppaxestext" text-anchor="middle" x="429"  y="354"
      >0.5</text>
      <line class="xppaxes"  x1="490"  y1="329" x2="490"   y2="320" />
      <line class="xppboxaxes"  x1="490"  y1="51" x2="490"   y2="60" />

      <text class="xppaxestext" text-anchor="middle" x="490"  y="354"
      >1</text>
      <line class="xppaxes"  x1="550"  y1="329" x2="550"   y2="320" />
      <line class="xppboxaxes"  x1="550"  y1="51" x2="550"   y2="60" />

      <text class="xppaxestext" text-anchor="middle" x="550"  y="354"
      >1.5</text>

      <text class="xppaxestext" text-anchor="middle" x="369"  y="379"
      >X</text>
</svg>
